#!OML:ASF H:\Terrain\Patient Classification 1\Terrain2\Thursday\justin.ASF
:FULLY-SPECIFIED
:DEGREES
331
root 8.50916 17.1536 7.50557 -4.7354 4.3177 -0.766299
lowerback 4.99531 -2.48448 -1.97065
upperback 0.0915763 -3.35072 2.85396
thorax -2.41952 -1.63623 4.28195
lowerneck -15.6373 -1.82269 -7.79338
upperneck 26.6788 -1.5474 3.93205
head 11.3539 -1.0066 2.55199
rclavicle 4.33102e-014 -3.4191e-014
rhumerus -45.3953 -19.3676 -64.3107
rradius 24.8648
rwrist -1.12952
rhand -16.2346 13.967
rfingers 7.12502
rthumb 9.97382 -15.7767
lclavicle 4.33102e-014 -3.4191e-014
lhumerus -43.2614 10.4298 80.3538
lradius 41.2793
lwrist 0.102081
lhand -18.6024 21.1346
lfingers 7.12502
lthumb 7.68893 50.9748
rfemur -17.5512 -4.94982 28.1321
rtibia 46.4786
rfoot -17.0781 -5.11415
rtoes 25.9463
lfemur 1.7013 5.52681 -3.69627
ltibia 104.598
lfoot -12.4859 -24.4821
ltoes 10.0674
332
root 8.48689 17.1504 7.62243 -4.24799 4.34783 -0.514631
lowerback 4.95072 -2.5092 -2.29654
upperback -0.197745 -3.40184 2.77319
thorax -2.67503 -1.64864 4.39275
lowerneck -15.616 -1.75235 -7.66199
upperneck 26.7973 -1.50267 3.98108
head 11.3896 -0.96917 2.55641
rclavicle 7.75012e-014 -1.66979e-014
rhumerus -45.59 -20.1654 -63.9557
rradius 25.1981
rwrist -0.745399
rhand -16.3662 13.2288
rfingers 7.12502
rthumb 9.84687 -16.521
lclavicle 7.75012e-014 -1.66979e-014
lhumerus -43.2817 11.0166 79.9397
lradius 39.5608
lwrist -0.372431
lhand -18.885 21.7086
lfingers 7.12502
lthumb 7.41615 51.5586
rfemur -18.4875 -3.99567 27.7701
rtibia 47.3526
rfoot -19.1915 -5.75391
rtoes 17.8377
lfemur 1.23243 5.80607 -3.92397
ltibia 105.177
lfoot -11.4768 -23.5102
ltoes 9.0953
333
root 8.47037 17.104 7.71903 -3.86266 4.47697 -0.351218
lowerback 4.85836 -2.57169 -2.56418
upperback -0.371395 -3.49898 2.76754
thorax -2.77845 -1.68854 4.54485
lowerneck -15.7013 -1.6832 -7.76772
upperneck 26.888 -1.4168 4.15086
head 11.4367 -0.920699 2.6519
rclavicle 2.81032e-014 1.27222e-014
rhumerus -45.6367 -20.3801 -63.9895
rradius 25.7204
rwrist -1.30671
rhand -16.6916 12.2349
rfingers 7.12502
rthumb 9.53296 -17.5295
lclavicle 2.81032e-014 1.27222e-014
lhumerus -43.273 11.6191 79.6364
lradius 38.123
lwrist -0.296262
lhand -18.4189 22.4272
lfingers 7.12502
lthumb 7.86607 52.2608
rfemur -18.3975 -4.52249 27.8995
rtibia 48.0793
rfoot -21.1419 -7.6231
rtoes 3.53078
lfemur 0.790962 6.01573 -4.0451
ltibia 105.861
lfoot -10.3111 -22.4727
ltoes 9.03548
334
root 8.45109 17.083 7.81922 -3.61669 4.83424 -0.225387
lowerback 4.85158 -2.71763 -2.83293
upperback -0.42594 -3.7102 2.74287
thorax -2.79567 -1.789 4.68501
lowerneck -16.0402 -1.65415 -7.59684
upperneck 26.98 -1.37934 4.08911
head 11.5351 -0.892864 2.60764
rclavicle -5.86415e-015 -3.18055e-015
rhumerus -45.4671 -20.6802 -64.0986
rradius 26.0552
rwrist -1.70721
rhand -16.8543 11.9705
rfingers 7.12502
rthumb 9.37594 -17.801
lclavicle -5.86415e-015 -3.18055e-015
lhumerus -43.2633 12.1801 79.3518
lradius 36.9539
lwrist 0.079455
lhand -17.8901 23.086
lfingers 7.12502
lthumb 8.37644 52.8999
rfemur -18.181 -4.92594 27.8894
rtibia 48.3305
rfoot -22.1135 -8.42704
rtoes -0.33498
lfemur 0.400996 6.04711 -4.18326
ltibia 106.347
lfoot -8.73191 -21.5692
ltoes 9.06289
335
root 8.42914 17.0873 7.92497 -3.46526 5.24581 -0.248161
lowerback 4.83399 -2.86952 -2.9879
upperback -0.419039 -3.92197 2.74558
thorax -2.74703 -1.89394 4.78613
lowerneck -16.2028 -1.64432 -7.46885
upperneck 26.8521 -1.39877 4.1288
head 11.5183 -0.880105 2.59558
rclavicle -1.9133e-015 -7.95139e-015
rhumerus -45.2766 -20.809 -64.4066
rradius 26.5867
rwrist -2.58778
rhand -16.6758 12.3862
rfingers 7.12502
rthumb 9.54812 -17.3775
lclavicle -1.9133e-015 -7.95139e-015
lhumerus -43.1512 12.2302 79.3215
lradius 35.8109
lwrist 0.525649
lhand -18.2295 23.4212
lfingers 7.12502
lthumb 8.04882 53.2479
rfemur -17.8478 -5.26163 27.9721
rtibia 48.2176
rfoot -22.4907 -8.65746
rtoes -0.406308
lfemur 0.0548649 5.99232 -4.08524
ltibia 106.703
lfoot -7.3248 -19.8441
ltoes 7.99999
336
root 8.41078 17.0991 8.03253 -3.23792 5.54245 -0.336704
lowerback 4.65468 -3.00123 -3.02513
upperback -0.428611 -4.09586 2.77662
thorax -2.63358 -1.98308 4.83775
lowerneck -16.2998 -1.64677 -7.55475
upperneck 26.6856 -1.42528 4.33098
head 11.4769 -0.871956 2.67869
rclavicle 4.8255e-014 -3.10104e-014
rhumerus -45.0971 -20.4957 -64.9934
rradius 27.3676
rwrist -4.11552
rhand -16.7438 12.5618
rfingers 7.12502
rthumb 9.48259 -17.2049
lclavicle 4.8255e-014 -3.10104e-014
lhumerus -43.0653 12.5995 79.1095
lradius 34.7933
lwrist 0.37803
lhand -18.4259 23.2291
lfingers 7.12502
lthumb 7.85931 53.063
rfemur -17.3741 -5.69247 28.1128
rtibia 47.6282
rfoot -22.6921 -8.88005
rtoes -1.92271
lfemur -0.293632 6.02799 -3.94249
ltibia 106.995
lfoot -5.37867 -18.9084
ltoes 10.9908
337
root 8.39184 17.1049 8.13088 -2.99117 5.91541 -0.507044
lowerback 4.4632 -3.12476 -2.97636
upperback -0.455425 -4.25405 2.79189
thorax -2.53976 -2.06485 4.82272
lowerneck -16.4334 -1.68558 -7.38357
upperneck 26.5799 -1.50442 4.28297
head 11.4666 -0.893603 2.61816
rclavicle 5.45912e-014 -2.38542e-014
rhumerus -45.0324 -20.2067 -65.5846
rradius 28.1635
rwrist -5.32587
rhand -17.0778 12.6046
rfingers 7.12502
rthumb 9.16027 -17.1764
lclavicle 5.45912e-014 -2.38542e-014
lhumerus -42.8626 12.7368 78.9198
lradius 33.5822
lwrist 0.131043
lhand -18.4285 22.7479
lfingers 7.12502
lthumb 7.85677 52.5819
rfemur -16.7659 -6.18536 28.3621
rtibia 46.7363
rfoot -22.8768 -9.46686
rtoes -5.32438
lfemur -0.834416 6.18484 -3.61378
ltibia 107.413
lfoot -4.25744 -17.743
ltoes 9.84342
338
root 8.37113 17.1208 8.22479 -2.80797 6.3037 -0.849888
lowerback 4.41536 -3.23306 -2.7751
upperback -0.499275 -4.38475 2.8626
thorax -2.55412 -2.13153 4.78859
lowerneck -16.482 -1.68866 -7.17445
upperneck 26.4153 -1.54215 4.21084
head 11.4131 -0.895618 2.54697
rclavicle -1.70458e-014 9.54166e-015
rhumerus -45.0696 -19.867 -66.1554
rradius 29.0082
rwrist -6.22324
rhand -17.4457 12.4282
rfingers 7.12502
rthumb 8.80525 -17.3681
lclavicle -1.70458e-014 9.54166e-015
lhumerus -42.6278 12.2494 79.0732
lradius 32.3829
lwrist 0.421185
lhand -18.5858 22.0774
lfingers 7.12502
lthumb 7.70493 51.917
rfemur -16.0544 -6.55248 28.7987
rtibia 45.6709
rfoot -20.3724 -7.08962
rtoes 10.5273
lfemur -1.49008 6.50786 -2.9245
ltibia 107.843
lfoot -3.16586 -16.7133
ltoes 7.46407
339
root 8.35273 17.1562 8.32359 -2.61316 6.58126 -1.13834
lowerback 4.4394 -3.30021 -2.61246
upperback -0.609668 -4.46219 2.97118
thorax -2.67761 -2.16712 4.82114
lowerneck -16.5101 -1.70789 -7.29211
upperneck 26.2521 -1.58604 4.40782
head 11.3615 -0.899856 2.63075
rclavicle 7.16867e-015 -1.35174e-014
rhumerus -45.1857 -19.3792 -66.6068
rradius 29.8712
rwrist -7.17536
rhand -17.8766 11.9772
rfingers 7.12502
rthumb 8.38938 -17.8362
lclavicle 7.16867e-015 -1.35174e-014
lhumerus -42.5787 12.1622 79.0303
lradius 31.5111
lwrist -0.172345
lhand -17.7352 21.4878
lfingers 7.12502
lthumb 8.5259 51.2957
rfemur -15.3579 -6.83939 29.1206
rtibia 44.4986
rfoot -21.4298 -8.49314
rtoes -2.17651
lfemur -1.9987 6.85061 -2.35156
ltibia 108.101
lfoot -1.2258 -16.026
ltoes 9.29287
